<?xml version="1.0" encoding="utf-8"?>
<!-- Uploaded to: SVG Repo, www.svgrepo.com, Generator: SVG Repo Mixer Tools -->
<svg width="800px" height="800px" viewBox="0 -199 1422 1422" class="icon"  version="1.1" xmlns="http://www.w3.org/2000/svg"><path d="M42.654897 44.076645l1349.31408 0 0 942.671481-1349.31408 0 0-942.671481Z" fill="#FFFFFF" /><path d="M396.974253 407.495696m-136.779784 0a136.779783 136.779783 0 1 0 273.559567 0 136.779783 136.779783 0 1 0-273.559567 0Z" fill="#EA5D5C" /><path d="M1022.578252 407.495696m-136.779784 0a136.779783 136.779783 0 1 0 273.559567 0 136.779783 136.779783 0 1 0-273.559567 0Z" fill="#EA5D5C" /><path d="M1066.654897 995.279089l-66.257151-195.359067-575.840044 4.834213L369.959535 984.757567l696.695362 10.521522z" fill="#4C66AF" /><path d="M1413.01202 69.669536A116.305471 116.305471 0 0 0 1308.081168 0.284365h-1194.334907a113.746182 113.746182 0 0 0-113.746182 113.746182v796.223271a113.746182 113.746182 0 0 0 113.746182 113.746182h1194.334907a113.746182 113.746182 0 0 0 113.746181-113.746182v-796.223271a113.746182 113.746182 0 0 0-8.815329-44.361011zM394.699329 966.842544l49.195224-138.201611h536.881977L1029.971754 966.842544H394.699329z m971.676757-56.873091a56.873091 56.873091 0 0 1-56.873091 56.873091h-219.245765l-69.953902-195.074702h-617.073035L333.845122 966.842544H114.599357a56.873091 56.873091 0 0 1-56.873091-56.873091V113.746182a56.873091 56.873091 0 0 1 56.873091-56.873091h1194.334907a56.873091 56.873091 0 0 1 56.873091 56.873091v796.223271z" fill="#3F4651" /><path d="M1027.412464 228.061094h-645.50958a170.619272 170.619272 0 0 0-153.27298 170.619273 172.325465 172.325465 0 0 0 0 17.346292 170.619272 170.619272 0 0 0 152.419883 152.419884h644.94085a170.619272 170.619272 0 0 0 167.775618-152.988615 172.325465 172.325465 0 0 0 0-17.346292 170.619272 170.619272 0 0 0-166.353791-170.050542zM398.39608 512.426548a113.746182 113.746182 0 1 1 113.746182-113.746181 113.746182 113.746182 0 0 1-113.746182 113.461816z m126.542627 0a170.619272 170.619272 0 0 0 43.223549-96.399889 172.325465 172.325465 0 0 0 0-17.346292 170.619272 170.619272 0 0 0-43.79228-113.746182H896.035625a170.619272 170.619272 0 0 0-43.79228 113.746182 172.325465 172.325465 0 0 0 0 17.346292 170.619272 170.619272 0 0 0 43.223549 96.399889h-372.518745z m499.061372 0a113.746182 113.746182 0 1 1 113.746182-113.746181 113.746182 113.746182 0 0 1-113.746182 113.461816z" fill="#3F4651" /><path d="M170.903717 170.619272m-56.873091 0a56.873091 56.873091 0 1 0 113.746182 0 56.873091 56.873091 0 1 0-113.746182 0Z" fill="#3F4651" /><path d="M170.903717 853.096362m-56.873091 0a56.873091 56.873091 0 1 0 113.746182 0 56.873091 56.873091 0 1 0-113.746182 0Z" fill="#3F4651" /><path d="M1251.492442 170.619272m-56.873091 0a56.873091 56.873091 0 1 0 113.746182 0 56.873091 56.873091 0 1 0-113.746182 0Z" fill="#3F4651" /><path d="M1251.492442 853.096362m-56.873091 0a56.873091 56.873091 0 1 0 113.746182 0 56.873091 56.873091 0 1 0-113.746182 0Z" fill="#3F4651" /></svg>